<?xml version="1.0" encoding="iso-8859-1"?>
<!-- Generator: Adobe Illustrator 19.0.0, SVG Export Plug-In . SVG Version: 6.00 Build 0)  -->
<svg version="1.1" id="Capa_1" xmlns="http://www.w3.org/2000/svg" xmlns:xlink="http://www.w3.org/1999/xlink" x="0px" y="0px"
	 viewBox="0 0 512.001 512.001" style="enable-background:new 0 0 512.001 512.001;" xml:space="preserve">
<g>
	<g>
		<path d="M121.435,211.143c-4.142,0-7.5,3.358-7.5,7.5v9.896c0,4.142,3.358,7.5,7.5,7.5s7.5-3.358,7.5-7.5v-9.896
			C128.935,214.501,125.577,211.143,121.435,211.143z"/>
	</g>
</g>
<g>
	<g>
		<path d="M230.79,211.142c-4.142,0-7.5,3.358-7.5,7.5v9.896c0,4.142,3.358,7.5,7.5,7.5s7.5-3.358,7.5-7.5v-9.896
			C238.289,214.5,234.931,211.142,230.79,211.142z"/>
	</g>
</g>
<g>
	<g>
		<path d="M194.543,222.202c-3.119-2.726-7.857-2.408-10.583,0.711c-1.892,2.165-4.753,3.407-7.848,3.407
			c-3.095,0-5.956-1.242-7.848-3.407c-2.727-3.119-7.464-3.437-10.583-0.711c-3.119,2.726-3.437,7.464-0.711,10.583
			c4.741,5.424,11.718,8.535,19.142,8.535s14.401-3.111,19.142-8.535C197.98,229.666,197.662,224.928,194.543,222.202z"/>
	</g>
</g>
<g>
	<g>
		<path d="M496.582,309.245c2.589-4.401,4.081-9.522,4.081-14.987c0-8.781-3.839-16.679-9.922-22.115
			c6.1-5.446,9.923-13.364,9.923-22.135c0-8.77-3.823-16.689-9.922-22.135c6.083-5.436,9.922-13.334,9.922-22.115
			c0-16.355-13.306-29.661-29.661-29.661h-119.34c-16.355,0-29.661,13.306-29.661,29.661c0,8.781,3.839,16.679,9.922,22.115
			c-6.1,5.446-9.922,13.365-9.922,22.135c0,8.77,3.823,16.688,9.922,22.134c-6.083,5.436-9.922,13.334-9.922,22.115
			c0,5.331,1.421,10.333,3.893,14.661h-64.097c14.179-11.183,23.978-27.784,26.159-46.956l10.765-94.619
			c1.121-9.857-2.026-19.755-8.633-27.156c-6.607-7.4-16.085-11.645-26.006-11.645H147.191c-4.142,0-7.5,3.358-7.5,7.5
			s3.358,7.5,7.5,7.5h116.892c5.735,0,10.997,2.356,14.816,6.635c3.82,4.278,5.566,9.773,4.918,15.472l-10.765,94.619
			c-3.155,27.735-26.584,48.651-54.499,48.651h-84.884c-20.273,0-38.172-11.038-47.666-27.702c-0.019-0.034-0.031-0.071-0.051-0.105
			c-3.634-6.404-5.95-13.528-6.783-20.844l-10.765-94.619c-0.648-5.698,1.098-11.192,4.917-15.471
			c3.819-4.279,9.082-6.635,14.817-6.635h29.058c4.142,0,7.5-3.358,7.5-7.5s-3.358-7.5-7.5-7.5H88.142
			c-9.921,0-19.4,4.245-26.007,11.646c-6.606,7.401-9.752,17.299-8.631,27.156l0.201,1.768c-16.123,2.118-30.687,10.424-40.8,23.544
			C1.097,207.972-2.852,227.481,2.07,246.184c7.148,27.161,31.755,46.13,59.841,46.13h13.298
			c4.152,6.343,9.305,11.942,15.218,16.605H40.799c-10.388,0-18.838,8.451-18.838,18.838c0,30.714,24.988,55.703,55.703,55.703
			h378.635c30.714,0,55.703-24.988,55.703-55.703C512.001,318.538,505.34,310.86,496.582,309.245z M62.512,246.534h-0.601
			c-7.307,0-13.709-4.935-15.568-12.001c-1.28-4.865-0.253-9.941,2.819-13.927c2.442-3.168,5.887-5.238,9.722-5.962L62.512,246.534z
			 M61.911,277.313c-21.277,0-39.92-14.371-45.335-34.948c-3.728-14.167-0.737-28.948,8.208-40.551
			c7.601-9.861,18.515-16.147,30.614-17.813l1.785,15.689c-7.864,1.188-14.945,5.327-19.901,11.758
			c-5.934,7.698-7.918,17.503-5.445,26.901c3.592,13.65,15.958,23.184,30.074,23.184h2.308c0.155,1.364,0.342,2.723,0.567,4.076
			c0.655,3.929,1.663,7.913,3.008,11.704H61.911z M351.664,191.1h119.338c8.084,0,14.661,6.577,14.661,14.661
			s-6.577,14.661-14.661,14.661h-24.819c-4.142,0-7.5,3.358-7.5,7.5s3.358,7.5,7.5,7.5c0,0,25.602-0.009,25.989-0.024
			c7.593,0.595,13.491,6.949,13.491,14.613c0,7.665-5.898,14.018-13.492,14.613c-0.388-0.016-121.29-0.016-121.676,0
			c-7.593-0.595-13.492-6.948-13.492-14.613c0-7.664,5.898-14.018,13.491-14.613c0.388,0.016,65.774,0.024,65.774,0.024
			c4.142,0,7.5-3.358,7.5-7.5s-3.358-7.5-7.5-7.5h-64.604c-8.084,0-14.661-6.577-14.661-14.661S343.58,191.1,351.664,191.1z
			 M485.663,294.259c0,8.084-6.577,14.661-14.661,14.661H351.664c-8.084,0-14.661-6.577-14.661-14.661
			c0-8.084,6.576-14.66,14.66-14.661h0.001h119.338C479.086,279.598,485.663,286.175,485.663,294.259z M456.298,368.46H77.664
			c-22.443,0-40.703-18.259-40.703-40.703c0-2.117,1.722-3.838,3.838-3.838h452.363c2.116,0,3.838,1.722,3.838,3.838
			C497,350.2,478.742,368.46,456.298,368.46z"/>
	</g>
</g>
<g>
</g>
<g>
</g>
<g>
</g>
<g>
</g>
<g>
</g>
<g>
</g>
<g>
</g>
<g>
</g>
<g>
</g>
<g>
</g>
<g>
</g>
<g>
</g>
<g>
</g>
<g>
</g>
<g>
</g>
</svg>
