<svg xmlns="http://www.w3.org/2000/svg" xmlns:xlink="http://www.w3.org/1999/xlink" xml:space="preserve" version="1.1"
     style="shape-rendering:geometricPrecision;text-rendering:geometricPrecision;image-rendering:optimizeQuality;"
     viewBox="0 0 105833.32 132291.65000000002" x="0px" y="0px" fill-rule="evenodd" clip-rule="evenodd"><defs><style type="text/css">

    .fil0 {fill:black;fill-rule:nonzero}

  </style></defs>
    <g><path class="fil0" d="M69858.05 10530.45c1036.9,-915.41 2019.44,-1454.4 2962.7,-1740.93 1203.11,-407 2423.56,-631.46 3621.84,-693.69 1502.1,-78.02 2973.19,99.21 4334.78,491.53 1189.5,342.73 2356.41,725.9 3432.93,1196.56 1098.69,480.33 2111.62,1054.1 2973.51,1771.8 839.72,699.21 1526.19,1503.16 2007.39,2499.44 478.7,991.06 750.05,2165.02 761.29,3606.3l2.07 2.07 0 21397.49c783.88,474.07 1587.6,1129.29 1965.23,1988.55 2832.99,736.4 6996.81,2267.06 9982.98,4542.94 2202.77,1678.83 3777.57,3767.53 3777.57,6262.32 0,8571.25 -8254.93,12335.21 -15486.53,14034.05 -821.58,193 -1661.4,364.49 -2515.34,514.58 -134.56,1008.2 -273.13,2263.66 -409.76,3742.95 -140.74,1523.79 -282.2,3319.53 -418.26,5366.89 -3.7,59.01 -16.96,115.13 -38.17,166.98 -222.61,920.74 -1155.79,1681.08 -2555.71,2209.48 -503.22,189.94 -1071.41,352.93 -1690.76,484.87l0 9149.42c0,18.88 -1,37.51 -2.93,55.88 0.41,6.95 0.72,13.92 0.86,20.94 16.06,762.08 -446.11,1326.11 -1160.16,1699.79l0 7925.71c0,292.25 -236.92,529.17 -529.17,529.17 -292.25,0 -529.17,-236.92 -529.17,-529.17l0 -7545.05c-12.5,2.94 -24.97,5.91 -37.53,8.77 -496.51,113.15 -1044.9,169.46 -1595.42,169.21 -548.69,-0.26 -1101.03,-57.09 -1607.41,-170.23 -61.14,-13.66 -121.65,-28.17 -181.48,-43.51l0 7580.81c0,292.25 -236.92,529.17 -529.17,529.17 -292.25,0 -529.17,-236.92 -529.17,-529.17l0 -7985.07c-693.08,-378.92 -1149.59,-934.29 -1160.17,-1670.58 -1.34,-15.38 -2.07,-30.94 -2.07,-46.67l0 -9145.93c-620.08,-131.02 -1189.73,-292.16 -1695.13,-478.11 -1497.75,-551.07 -2474.96,-1351.73 -2637.37,-2285.81 -8.47,-32.45 -13.99,-66.17 -16.17,-100.9 -136.06,-2047.36 -277.52,-3843.1 -418.26,-5366.89 -133.29,-1443.14 -268.43,-2673.26 -399.89,-3668.6 -992.36,-165.45 -1966.51,-359.71 -2916.11,-582.9 -7245.69,-1702.99 -15420.85,-5468.15 -15420.85,-14040.08 0,-2356.83 1396.32,-4541.9 3833.36,-6399.49 2401.35,-1830.39 5831.04,-3352.78 9927.64,-4406.22 118.79,-269.85 285.39,-531.31 496.46,-783.22 390.75,-466.36 938.01,-900.54 1617.05,-1293.57l0 -20864.28c0,-1757.92 167.44,-3143.49 591.88,-4342.1 431.75,-1219.3 1121.01,-2225.7 2158.56,-3206.1 11.03,-10.38 22.41,-20.16 34.06,-29.4zm-45479.58 62769.39c0,-292.25 236.92,-529.17 529.17,-529.17 292.25,0 529.17,236.92 529.17,529.17l0 5751.49c0,292.25 -236.92,529.17 -529.17,529.17 -292.25,0 -529.17,-236.92 -529.17,-529.17l0 -5751.49zm4149.8 -730.99c0,-292.25 236.92,-529.17 529.17,-529.17 292.25,0 529.17,236.92 529.17,529.17l0 7410.77c0,292.25 -236.92,529.17 -529.17,529.17 -292.25,0 -529.17,-236.92 -529.17,-529.17l0 -7410.77zm4149.8 2559.17c0,-292.25 236.92,-529.17 529.17,-529.17 292.25,0 529.17,236.92 529.17,529.17l0 2292.44c0,292.25 -236.92,529.17 -529.17,529.17 -292.25,0 -529.17,-236.92 -529.17,-529.17l0 -2292.44zm4149.8 -822.68c0,-292.25 236.92,-529.17 529.17,-529.17 292.25,0 529.17,236.92 529.17,529.17l0 3937.8c0,292.25 -236.92,529.17 -529.17,529.17 -292.25,0 -529.17,-236.92 -529.17,-529.17l0 -3937.8zm4149.81 -2963.55c0,-292.25 236.92,-529.17 529.17,-529.17 292.25,0 529.17,236.92 529.17,529.17l0 9864.9c0,292.25 -236.92,529.17 -529.17,529.17 -292.25,0 -529.17,-236.92 -529.17,-529.17l0 -9864.9zm4149.79 1729.53c0,-292.25 236.92,-529.17 529.17,-529.17 292.25,0 529.17,236.92 529.17,529.17l0 6405.83c0,292.25 -236.92,529.17 -529.17,529.17 -292.25,0 -529.17,-236.92 -529.17,-529.17l0 -6405.83zm-19122.56 -5545.28c292.25,0 529.17,236.92 529.17,529.17 0,292.25 -236.92,529.17 -529.17,529.17l-4268.53 0c-150.81,0 -288.33,62.09 -388.35,162.11 -100.01,100.02 -162.11,237.53 -162.11,388.36l0 14842.76c0,150.81 62.09,288.32 162.11,388.34 100.02,100.02 237.54,162.11 388.35,162.11l6830.66 0 6803.84 5558.73 6670.44 -5558.73 6786.57 0c150.81,0 288.33,-62.09 388.35,-162.11 100.02,-100.02 162.11,-237.53 162.11,-388.34l0 -14842.76c0,-150.83 -62.1,-288.34 -162.11,-388.36 -100.02,-100.02 -237.54,-162.11 -388.35,-162.11l-15601.69 0c-292.25,0 -529.17,-236.92 -529.17,-529.17 0,-292.25 236.92,-529.17 529.17,-529.17l15601.69 0c442.97,0 845.3,180.84 1136.63,472.17 291.33,291.34 472.17,693.68 472.17,1136.64l0 14842.76c0,442.97 -180.84,845.29 -472.17,1136.62 -291.33,291.33 -693.66,472.17 -1136.63,472.17l-6410.39 0 -7040.87 5867.43 -7181.71 -5867.43 -6458.54 0c-442.97,0 -845.3,-180.84 -1136.63,-472.17 -291.33,-291.33 -472.17,-693.65 -472.17,-1136.62l0 -14842.76c0,-442.96 180.84,-845.3 472.17,-1136.64 291.33,-291.33 693.66,-472.17 1136.63,-472.17l4268.53 0zm-21754.4 -17694.15c0,-292.25 236.92,-529.17 529.17,-529.17 292.25,0 529.17,236.92 529.17,529.17l0 2314.02c0,292.25 -236.92,529.17 -529.17,529.17 -292.25,0 -529.17,-236.92 -529.17,-529.17l0 -2314.02zm4000.09 -1916.42c0,-292.25 236.92,-529.17 529.17,-529.17 292.25,0 529.17,236.92 529.17,529.17l0 6337.04c0,292.25 -236.92,529.17 -529.17,529.17 -292.25,0 -529.17,-236.92 -529.17,-529.17l0 -6337.04zm4000.1 1740.2c0,-292.25 236.92,-529.17 529.17,-529.17 292.25,0 529.17,236.92 529.17,529.17l0 2856.66c0,292.25 -236.92,529.17 -529.17,529.17 -292.25,0 -529.17,-236.92 -529.17,-529.17l0 -2856.66zm4000.11 -859.09c0,-292.25 236.92,-529.17 529.17,-529.17 292.25,0 529.17,236.92 529.17,529.17l0 4574.82c0,292.25 -236.92,529.17 -529.17,529.17 -292.25,0 -529.17,-236.92 -529.17,-529.17l0 -4574.82zm4000.09 -2467.1c0,-292.25 236.92,-529.17 529.17,-529.17 292.25,0 529.17,236.92 529.17,529.17l0 9509.02c0,292.25 -236.92,529.17 -529.17,529.17 -292.25,0 -529.17,-236.92 -529.17,-529.17l0 -9509.02zm4000.08 1667.16c0,-292.25 236.92,-529.17 529.17,-529.17 292.25,0 529.17,236.92 529.17,529.17l0 6174.72c0,292.25 -236.92,529.17 -529.17,529.17 -292.25,0 -529.17,-236.92 -529.17,-529.17l0 -6174.72zm3586.04 -5364.34c432.24,0 824.84,176.46 1109.12,460.73 284.27,284.28 460.73,676.87 460.73,1109.13l0 14307.3c0,432.26 -176.46,824.85 -460.73,1109.12 -284.28,284.27 -676.88,460.73 -1109.12,460.73l-6218.85 0 -6929.45 5661.34 -6793.55 -5661.34 -6172.33 0c-432.26,0 -824.85,-176.46 -1109.13,-460.73 -284.27,-284.27 -460.73,-676.86 -460.73,-1109.12l0 -14307.3c0,-432.26 176.46,-824.85 460.73,-1109.13 284.28,-284.27 676.87,-460.73 1109.13,-460.73l26114.18 0zm360.84 1209.01c-92.96,-92.96 -220.73,-150.67 -360.84,-150.67l-26114.18 0c-140.11,0 -267.89,57.71 -360.85,150.67 -92.96,92.96 -150.67,220.74 -150.67,360.85l0 14307.3c0,140.11 57.71,267.88 150.67,360.84 92.96,92.96 220.74,150.67 360.85,150.67l6548.53 0 6423.09 5352.64 6551.6 -5352.64 6590.96 0c140.11,0 267.88,-57.71 360.84,-150.67 92.96,-92.96 150.67,-220.73 150.67,-360.84l0 -14307.3c0,-140.11 -57.71,-267.89 -150.67,-360.85zm16929.59 -19817.41c0,-292.25 236.92,-529.17 529.17,-529.17 292.25,0 529.17,236.92 529.17,529.17l0 5751.48c0,292.25 -236.92,529.17 -529.17,529.17 -292.25,0 -529.17,-236.92 -529.17,-529.17l0 -5751.48zm-4149.8 -731.26c0,-292.25 236.92,-529.17 529.17,-529.17 292.25,0 529.17,236.92 529.17,529.17l0 7411.33c0,292.25 -236.92,529.17 -529.17,529.17 -292.25,0 -529.17,-236.92 -529.17,-529.17l0 -7411.33zm-4149.79 2559.42c0,-292.25 236.92,-529.17 529.17,-529.17 292.25,0 529.17,236.92 529.17,529.17l0 2292.49c0,292.25 -236.92,529.17 -529.17,529.17 -292.25,0 -529.17,-236.92 -529.17,-529.17l0 -2292.49zm-4149.81 -822.65c0,-292.25 236.92,-529.17 529.17,-529.17 292.25,0 529.17,236.92 529.17,529.17l0 3937.81c0,292.25 -236.92,529.17 -529.17,529.17 -292.25,0 -529.17,-236.92 -529.17,-529.17l0 -3937.81zm-4149.84 -2963.58c0,-292.25 236.92,-529.17 529.17,-529.17 292.25,0 529.17,236.92 529.17,529.17l0 9864.92c0,292.25 -236.92,529.17 -529.17,529.17 -292.25,0 -529.17,-236.92 -529.17,-529.17l0 -9864.92zm-4149.78 1729.56c0,-292.25 236.92,-529.17 529.17,-529.17 292.25,0 529.17,236.92 529.17,529.17l0 6405.81c0,292.25 -236.92,529.17 -529.17,529.17 -292.25,0 -529.17,-236.92 -529.17,-529.17l0 -6405.81zm20180.91 -4486.95c-292.25,0 -529.17,-236.92 -529.17,-529.17 0,-292.25 236.92,-529.17 529.17,-529.17l4268.51 0c442.97,0 845.31,180.84 1136.65,472.17 291.34,291.32 472.18,693.64 472.18,1136.62l0 14842.8c0,442.95 -180.84,845.29 -472.19,1136.61 -291.33,291.33 -693.67,472.17 -1136.64,472.17l-6458.51 0 -7181.69 5867.44 -7040.9 -5867.44 -6410.37 0c-442.98,0 -845.3,-180.84 -1136.63,-472.16 -291.34,-291.34 -472.18,-693.67 -472.18,-1136.62l0 -14842.8c0,-442.97 180.84,-845.3 472.17,-1136.63 291.33,-291.33 693.66,-472.16 1136.64,-472.16l15601.67 0c292.25,0 529.17,236.92 529.17,529.17 0,292.25 -236.92,529.17 -529.17,529.17l-15601.67 0c-150.83,0 -288.34,62.08 -388.36,162.1 -100.02,100.02 -162.11,237.54 -162.11,388.35l0 14842.8c0,150.8 62.1,288.32 162.12,388.34 100.01,100.01 237.52,162.1 388.35,162.1l6786.56 0 6670.45 5558.73 6803.84 -5558.73 6830.62 0c150.81,0 288.34,-62.09 388.36,-162.11 100.03,-100.02 162.13,-237.53 162.13,-388.33l0 -14842.8c0,-150.81 -62.1,-288.32 -162.12,-388.34 -100.02,-100.01 -237.53,-162.11 -388.37,-162.11l-4268.51 0zm36115.87 -4924.75c-520.35,1138.74 -1106.5,2237.92 -1753.26,3292.11 723.89,911.6 1498.46,1776.67 2319.15,2590.33 555.38,-889.93 1066.59,-1813.13 1530.31,-2766.15 -223.36,-1369.38 -998.83,-2456.11 -2096.2,-3116.29zm2358.15 8198.85c-583.44,-473.62 -1149.04,-970.23 -1695.57,-1488.52 -626.73,958.15 -1304.52,1876.37 -2029.29,2750.29 842.7,762.57 1728.6,1473.53 2653.24,2128.39 370.23,-454.71 727.63,-921.32 1071.62,-1399.24l0 -1990.92zm-2081.84 -1861.51c-822.22,-808.66 -1599.1,-1667.38 -2326.25,-2571.46 -634.29,992.56 -1322.98,1943.46 -2061.67,2847.88 738.49,877.54 1525.47,1708.67 2356.49,2488.8 726.8,-877.9 1405.39,-1801.16 2031.43,-2765.22zm-2673.12 -3011.06c-11.45,-14.8 -22.94,-29.57 -34.37,-44.39 -729.25,-945.72 -1405.24,-1938.46 -2023.23,-2973.11 -627.89,1051.45 -1315.5,2059.3 -2057.85,3018.27 531.1,842.54 1101.91,1654.88 1709.62,2434.03 114.64,146.98 230.68,292.71 347.92,437.31 738.94,-911.35 1426.46,-1870.4 2057.91,-2872.11zm-2362.44 -3539.46c-439.88,-770.66 -847.97,-1563.5 -1222.39,-2376.55 -369.89,-112.24 -727.31,-203.67 -1070.92,-273.18 -465.83,814.7 -966.9,1604.19 -1500.97,2366.08 514.73,1157.1 1098.13,2273.49 1744.7,3343.33 741.84,-971.65 1426.79,-1993.41 2049.58,-3059.68zm-521.78 -2129.06c260.55,541.31 536.3,1073.06 826.7,1594.57 197.62,-354.82 388.45,-714.34 572.29,-1078.36l-1398.99 -516.21zm1131.43 2128.9c622.81,1066.56 1307.63,2088.29 2049.16,3059.58 624.4,-1033.11 1189.89,-2109.63 1691.49,-3224.33 -483.31,-288.47 -1051.1,-554.27 -1717.94,-800.32l-1256.7 -463.7c-243.35,484.21 -498.84,960.61 -766.01,1428.77zm5102.03 6471.92c455.33,434.93 924.15,854.37 1405.72,1257.51 3.78,-1165.03 17.76,-2353.7 -118.17,-3510.61 -398.76,771.99 -828.54,1523.63 -1287.55,2253.1zm1405.72 6676.4c-329,-205.54 -653.8,-417.79 -974.18,-636.55 -721.06,856.71 -1487.57,1670.06 -2295.59,2435.84 982.11,652.52 2005.11,1242.92 3063.99,1766.09 68.92,-68.78 137.52,-137.92 205.78,-207.42l0 -3357.96zm-1408.85 -939.28c-925.12,-657.09 -1811.96,-1369.24 -2656.15,-2132.1 -640.8,745.57 -1316.4,1457.37 -2024.11,2132.49 -109.32,104.29 -219.42,207.69 -330.27,310.21 858.55,762.82 1760.91,1472.63 2702.51,2124.67 813.04,-764.35 1583.75,-1577.58 2308.02,-2435.27zm-3044.69 -2489.66c-830.9,-778.41 -1618.53,-1606.8 -2358.66,-2480.63 -231.06,272.82 -466.7,541.26 -706.89,805.08 -529.19,581.26 -1080.28,1140.33 -1651.9,1675.77 158.31,184.43 318.81,366.75 481.43,546.93 597.74,662.28 1224.28,1295.45 1877.3,1897.51 120.7,-111.27 240.49,-223.61 359.35,-337.01 699.29,-667.09 1366.61,-1370.62 1999.37,-2107.65zm-2701.75 -2893.03c-142.19,-174.1 -282.53,-349.91 -420.98,-527.41 -580.66,-744.46 -1128.21,-1518.58 -1640.25,-2319.91 -160.11,199.08 -322.59,395.96 -487.45,590.57 -583.93,689.29 -1197.56,1350.35 -1838.8,1980.96 625.92,963.82 1304.35,1886.91 2030.97,2764.7 553.99,-520.09 1088.46,-1062.83 1602.05,-1626.95 256.78,-282.04 508.31,-569.44 754.46,-861.96zm-2358.12 -3321.62c-646.78,-1054.29 -1232.93,-2153.6 -1753.3,-3292.43 -216.88,296.52 -438.84,588.65 -665.76,876.22 -511.35,648.03 -1047.38,1272.8 -1606.51,1872.65 509.4,1083.66 1079.69,2130.01 1706.29,3134.04 600.48,-595.33 1176.29,-1218.19 1725.64,-1866.67 201.5,-237.86 399.39,-479.18 593.64,-723.81zm-2000.94 -3848.66c-312.79,-721.94 -599.39,-1459.08 -858.51,-2210.06 -462.11,186.24 -850.15,477.63 -1152.2,884 -361.95,502.98 -639.66,1032.73 -846.55,1616.99 -67.36,190.21 -127.46,386.8 -180.8,590.68 237.9,645.95 496.57,1281.02 775.31,1904.22 497.21,-540.98 974.67,-1101.38 1431.23,-1679.98 285.29,-361.55 562.56,-730.26 831.52,-1105.85zm-354.13 -2365.71c217.5,629.19 454.53,1248.48 710.45,1856.99 420.26,-613.49 818.76,-1244.36 1194.26,-1891.38 -601.37,-82.67 -1153.79,-89.55 -1648.92,-13.69 -87.09,13.34 -172.37,29.37 -255.79,48.08zm11231.36 14813.7c210.46,143.18 422.88,283.43 637.12,420.83l0 -1233.52c-207.95,274.84 -420.37,545.77 -637.12,812.69zm637.12 5295.74c-33.76,-15.96 -67.49,-31.95 -101.19,-48.03 -817.7,795.55 -1679.45,1541.74 -2580.97,2234.06 871.49,412.58 1766.46,779.86 2682.16,1099.07l0 -3285.1zm-605.33 -294.96c-1057.96,-531.45 -2080.22,-1128.93 -3061.9,-1787.43 -852.05,778.19 -1748.02,1504.51 -2683.52,2174.21 1003.93,678.91 2051.37,1292.53 3136.84,1835.38 911.43,-686.54 1782.44,-1428.85 2608.58,-2222.16zm-3509.27 -2093.67c-939.62,-656.39 -1840.46,-1369.32 -2698.08,-2134.27 -857.62,764.93 -1758.44,1477.88 -2698.07,2134.21 361.38,327.26 730.75,644.99 1107.71,952.89 516.2,421.63 1046.7,824.7 1590.51,1208.48 45.87,-32.37 91.66,-64.86 137.34,-97.5 891.32,-637 1746.14,-1326.37 2560.59,-2063.81zm-3090.97 -2491.19c-652.43,-603.46 -1278.74,-1237.43 -1876.73,-1899.99 -161.33,-178.75 -320.59,-359.6 -477.74,-542.48 -844.09,762.65 -1730.83,1474.74 -2655.97,2131.73 724.27,857.68 1494.97,1670.87 2307.94,2435.16 941.61,-651.95 1843.97,-1361.67 2702.5,-2124.42zm-2695.22 -2846.13c-724.59,-873.7 -1402.33,-1791.66 -2028.94,-2749.65 -818.6,776.22 -1680.01,1503.81 -2580.11,2178.37 603.71,939.59 1257.06,1840.89 1956.18,2699.57 924.45,-654.77 1810.21,-1365.75 2652.87,-2128.29zm-2319.03 -3201.93c-625.33,-993.91 -1196.34,-2029.08 -1708.72,-3100.71 -317.35,327.73 -641.75,647.62 -972.93,959.36l0 4145.58c36.38,59.82 72.98,119.49 109.75,179.01 897.69,-674.99 1756.41,-1404.26 2571.9,-2183.24zm-1947.99 -3613.18c-203.38,-446.19 -396.69,-898.46 -579.59,-1356.47 -93.81,626.54 -141.33,1318.5 -151.79,2094.9 248.04,-241.65 491.87,-487.85 731.38,-738.43zm14167.81 18384.12c-1082,-369.12 -2135.83,-803.91 -3157.28,-1299.88 -987.17,726.31 -2019.73,1389.07 -3092.33,1982.58 1202.96,610.47 2453.4,1133.7 3743.92,1561.89 865.5,-532.74 1701.8,-1112.74 2505.69,-1736.63l0 -507.96zm-3689.63 -1565.31c-1080.61,-553.4 -2123.25,-1175.98 -3122.78,-1862.21 -999.82,686.47 -2042.72,1309.19 -3123.5,1862.68 603.34,435.06 1223.53,846.09 1859.33,1231.72 414.6,251.47 835.88,492.13 1263.44,721.67 1083.46,-581.63 2126.46,-1234.93 3123.51,-1953.86zm-3584.69 -2186.04c-498.62,-356.93 -986.05,-729.87 -1461.52,-1118.23 -416.69,-340.36 -824.19,-692.57 -1222.15,-1056.04 -981.86,658.57 -2004.25,1256.2 -3062.41,1787.69 826.08,793.3 1697.02,1535.64 2608.4,2222.18 1085.88,-542.88 2133.58,-1156.62 3137.68,-1835.6zm-3080.97 -2543.77c-808.01,-765.75 -1574.49,-1579.04 -2295.51,-2435.64 -728.1,497.12 -1478.99,960.57 -2250.67,1388.22l0 1220.22c474.96,550.38 969.18,1081.98 1481.68,1593.48 1059.07,-523.18 2082.21,-1113.72 3064.5,-1766.28zm-2632.93 -2843.86c-681.88,-839.77 -1320.82,-1719.26 -1913.25,-2634.73l0 3826.74c653.63,-371.36 1291.81,-769.16 1913.25,-1192.01zm12988.22 12623.1c-826.51,-184.14 -1639.95,-405.67 -2438.6,-662.86 -1167.29,704.39 -2386.25,1325.23 -3649.59,1854.66 1515.92,549.2 3090.28,966.16 4710.61,1237.8 466.68,-242.05 926.03,-497.25 1377.58,-765.19l0 -1664.41zm-3098.54 -884.69c-1280.1,-448.29 -2520.31,-988.66 -3713.41,-1613.86 -1193.2,625.29 -2433.44,1165.82 -3713.64,1614.16 857.16,498.65 1741.44,951.68 2649.96,1355.85 350.97,156.13 705.61,304.93 1063.67,446.35 1284.68,-507.45 2525.09,-1111.09 3713.42,-1802.5zm-4276.73 -1917.36c-328.5,-181.78 -653.3,-369.97 -974.15,-564.57 -726.51,-440.64 -1432.96,-913.77 -2117.59,-1417.47 -1163.28,564.95 -2368.48,1050.54 -3609.35,1450.04 940.64,760.98 1927.95,1460.86 2956.57,2094.02 1290.77,-428.19 2541.42,-951.45 3744.52,-1562.02zm-3567.35 -2339.58c-901.46,-692.27 -1763.12,-1438.46 -2580.81,-2233.94 -453.19,216.37 -912.65,420.77 -1378.04,612.73l0 2735.13c112.66,98.37 226.05,195.84 340.16,292.39 1244.01,-383.23 2452.39,-854.27 3618.69,-1406.31zm-2979.7 -2629.41c-334.24,-337.76 -660.7,-683.96 -979.15,-1038.22l0 1474.24c329.51,-139 655.91,-284.44 979.15,-436.02zm12075.79 6740.9c607.33,184.34 1223.1,347.74 1846.53,489.49l0 -1771.08c-598.67,451.21 -1214.6,878.82 -1846.53,1281.59zm1844.84 4184.64c-432.62,-48.73 -862.37,-107.57 -1289.03,-176.25 -1436.73,734.27 -2939.72,1346.09 -4496.72,1822.64 1660.64,378.3 3375.28,602.56 5129.7,657.88 399.62,-609.45 623.39,-1373.58 656.05,-2304.27zm-2164.48 -331.78c-1599.32,-311.17 -3152.23,-761.65 -4646.91,-1339.09 -17.22,6.65 -34.43,13.35 -51.67,19.97 -1478.75,567.84 -3014.04,1011.52 -4594.44,1319.08 1068.54,511.47 2172.89,954.92 3308.08,1325.05 441.51,143.96 887.65,276.75 1338.07,398.18 129.82,-34.98 259.28,-70.88 388.36,-107.75 1471.19,-420.25 2894.14,-962.43 4258.51,-1615.44zm-5370.65 -1630.54c-185.54,-77.76 -370.17,-157.42 -553.79,-239.1 -1066.39,-474.4 -2099.76,-1014.51 -3095.58,-1615.43 -1206.66,388.55 -2447.02,695.76 -3715.28,915.58l0 606.39c854.36,571.48 1740.04,1095.97 2653.78,1569.96 1620.65,-271.51 3195.09,-688.33 4710.87,-1237.4zm-4242.8 -2222.67c-1009.83,-643.73 -1978.83,-1350.96 -2902,-2116.4 -73.17,21.71 -146.44,43.22 -219.85,64.33l0 2798.97c1061.96,-187.73 2103.74,-437.96 3121.85,-746.9zm11274.26 3591.56c168,22.51 336.46,43.5 505.36,62.89l0 -348.44c-167.45,96.9 -335.92,192.09 -505.36,285.55zm-563.5 3409.35c-1972.98,-90.3 -3893.81,-389.72 -5742.99,-877.66 -1789.89,472.54 -3646.03,768.47 -5550.7,869.12 1360.64,684.79 3162.75,1115.79 5175.6,1431.76 150.89,11.29 302.71,21.68 455.5,31.03 820.02,34.57 1573.22,14.55 2254.99,-63.33 213.43,-52.64 425.8,-107.82 637.08,-165.49 682.7,-186.36 1356.19,-399.35 2019.42,-637.87 34.05,-20.38 67.7,-41.09 100.83,-62.21 241.02,-153.64 458.06,-328.54 650.27,-525.35zm-6769.09 -1169.85c-159.4,-48.78 -318.23,-98.97 -476.46,-150.56 -1387.63,-452.44 -2730.52,-1012.8 -4019.86,-1671.76 -810.35,130.54 -1631.77,225.49 -2462.8,283.19 228.42,921.4 788.1,1637.38 1593.27,2202.76 1837.57,-41.92 3631.56,-268.8 5365.85,-663.63zm-5281.78 -2239.56c-606.94,-334.81 -1201.18,-691.77 -1781.74,-1069.92l0 466.79c0,21.07 -1.26,41.83 -3.66,62.26 -13.22,251.25 -7.16,490.51 16.9,718.6 594.73,-40.04 1184.42,-99.49 1768.5,-177.73zm11596.74 46121.31c-1.91,-18.28 -2.9,-36.82 -2.9,-55.6l0 -8961.74c-899.43,129.69 -1877.37,199.54 -2900.9,199.54 -1002.14,0 -1961.06,-69.79 -2845.41,-196.98l0 8959.18c0,13.64 -0.52,27.15 -1.53,40.53 20.91,528.42 701.86,900.56 1572.63,1095.09 432.59,96.65 906.86,145.2 1380.03,145.43 471.33,0.22 940.19,-47.85 1363.92,-144.41 820.89,-187.07 1443.86,-539.36 1433.33,-1039.14 -0.28,-14.1 0.01,-28.06 0.83,-41.9zm4546.21 -15662.48c-416.61,328.5 -961.2,617.58 -1608.87,860.28 -1491.94,559.07 -3550.89,886.18 -5841.04,886.18 -2252.79,0 -4244.45,-330.28 -5712.35,-879.01 -713.27,-266.63 -1306.82,-587.89 -1753.21,-951.83 90.76,1103.99 179.42,2296.3 264.24,3569.25 58.24,541.37 797.35,1075.75 1966.14,1505.79 1336.22,491.63 3180.4,795.68 5235.08,795.68 2081.77,0 3942.6,-297.79 5277.94,-801.81 1138.86,-429.86 1857.82,-977.32 1919.29,-1567.82 81.28,-1215.1 166.06,-2356.21 252.78,-3416.71zm-14982.88 -883.87c383.73,480.74 1077.95,910.91 2004.58,1257.3 1409.22,526.79 3335.89,843.87 5528.39,843.87 2230.73,0 4224.29,-314.13 5657.08,-851.04 850.19,-318.59 1494.72,-709.13 1858.52,-1149.93 31.95,-371.78 64.1,-732.63 96.38,-1082.17 125.35,-1357.19 250.67,-2518.81 371.82,-3469.38 -2650.85,404.39 -5418.58,607.27 -8186.87,608.2 -2628.31,0.89 -5255.26,-180.31 -7781.29,-543.73 118.61,938.46 241.11,2078.26 363.64,3404.91 29.38,318.07 58.65,645.47 87.75,981.97zm18999.46 -19620.83c-0.87,29.1 -4.13,58.53 -10.01,88.04l-1453.67 7257.27c1922.04,-424.42 3671.38,-965.45 5193.42,-1600.61 3068.31,-1280.42 5186.66,-2922.37 5876.88,-4725.98l-8595.25 -1795.8c-284.96,272.43 -623.8,532.09 -1011.37,777.08zm-2589.09 7576.67l1389 -6934.39c-297.11,135.6 -611.49,264.76 -941.95,386.96 -1194.02,441.51 -2608.53,800.47 -4175.43,1051.88l-1149.72 6147.05c1706.52,-137.67 3340.93,-358.34 4878.1,-651.5zm-19758.15 -8250.2c35.13,14.39 68.52,32.52 99.61,53.94 436.25,232.59 934.52,452.53 1486.52,656.65 2327.24,860.54 5553.66,1392.82 9127.63,1392.82 3573.97,0 6800.4,-532.28 9127.64,-1392.82 2167.95,-801.65 3508.87,-1847.11 3508.87,-2946.34l0 -4315.41c-727.95,692.68 -1804.51,1302.53 -3145.07,1798.24 -2437.78,901.42 -5794.22,1458.98 -9491.44,1458.98 -3697.22,0 -7053.65,-557.56 -9491.43,-1458.98 -1340.56,-495.71 -2417.12,-1105.56 -3145.07,-1798.24l0 4315.41c0,797.8 706.51,1567.25 1922.74,2235.75zm479.91 1404.76l1083.06 6825c1568.11,303.33 3238.55,531.09 4984.52,671.94l-1149.72 -6147.05c-1566.9,-251.42 -2981.41,-610.36 -4175.44,-1051.88 -257.43,-95.19 -505.06,-194.62 -742.42,-298.01zm-21.45 6595.17l-1139.58 -7181.13c-470.37,-276.36 -877,-572.83 -1211.93,-886.48l-8474.99 1770.67c-28.14,59.92 -54.77,120.04 -79.74,180.37 762.83,1728.41 2838.73,3299.81 5798.34,4534.87 1499.45,625.74 3219.42,1160.18 5107.9,1581.7zm-10480.23 -6908.5l7706.68 -1610.15c-432.54,-534.8 -665.99,-1111.32 -665.99,-1717.03l0 -1079.06c-1945.31,648.61 -3602.26,1433.46 -4884.37,2321.42 -936.14,648.35 -1666.85,1348.02 -2156.32,2084.82zm33794.46 -1647.68l7866.46 1643.53c-591.26,-776.17 -1495.88,-1568.31 -2625.34,-2297.53 -1294.61,-835.86 -2872.44,-1579.42 -4605.2,-2115.97l0 1090.47c0,591.56 -222.65,1155.29 -635.92,1679.5zm-9437.29 9498.91l1141.78 -6104.64c-1481.9,209.19 -3087.67,323.73 -4763.42,323.73 -1675.75,0 -3281.48,-114.55 -4763.4,-323.73l1141.78 6104.64c1177.45,82.05 2387.29,124.84 3621.63,124.84 1234.33,0 2444.21,-42.76 3621.63,-124.84zm21400.55 -2871.21c-1404.53,1487.72 -3425.97,2818.52 -5919.34,3927.6 -4899.86,2179.51 -11654.63,3527.58 -19102.84,3527.58 -7448.21,0 -14202.98,-1348.07 -19102.84,-3527.58 -2509.64,-1116.32 -4541.44,-2457.19 -5947.02,-3956.68 2180.48,3935.88 7289.69,6631.65 13469.84,8084.2 3610.74,848.64 7577.86,1271.78 11543.93,1270.44 3965.93,-1.34 7935.22,-427.19 11550.43,-1276.47 6183.52,-1452.63 11304.14,-4140.22 13507.84,-8049.09zm-47564.69 -5661.12c0,-1635.61 894.59,-3160.34 2485.22,-4493.7 1527.9,-1280.75 3712.35,-2392.58 6362.44,-3255.67l0 -1201.23c-3749.18,1011.21 -6875.48,2421.89 -9071.66,4095.89 -2171.58,1655.25 -3415.8,3556.49 -3415.8,5560.27 0,3053.1 2869.72,5856.14 7509.41,7919.92 4767.76,2120.75 11368.78,3432.48 18672.9,3432.48 7304.12,0 13905.14,-1311.73 18672.9,-3432.48 4639.69,-2063.78 7509.41,-4866.82 7509.41,-7919.92 0,-2110.62 -1400.73,-3929.84 -3360.01,-5423.1 -2692.7,-2052.22 -6416.43,-3478.06 -9127.46,-4230.24l0 1199.45c1877.84,615.51 4492.77,1697.71 6380.67,3270 1442.69,1201.51 2467,2687.89 2467,4478.33 0,2771.08 -2588.75,5236.94 -6774.16,6983.54 -4044.85,1687.94 -9620.55,2731.97 -15768.35,2731.97 -6147.8,0 -11723.5,-1044.03 -15768.35,-2731.97 -2768.7,-1155.39 -6774.16,-3488.38 -6774.16,-6983.54zm1059.82 -95.07c559.82,-778.26 1337.9,-1507.69 2304.03,-2176.81 1437.39,-995.5 3300.86,-1863.66 5483.81,-2563.49l0 -1799.46c-2375.5,804.52 -4323.13,1810.29 -5684.44,2951.41 -1314.38,1101.79 -2067.48,2320.36 -2103.4,3588.35zm35177.53 -4743.42c1951.41,571.61 3730.05,1395.69 5175.7,2329.07 1057.93,683.04 1944.23,1429.82 2598.68,2185.93 -119.16,-1290.73 -942.67,-2407.71 -2067.57,-3344.56 -1654.94,-1378.28 -3949.51,-2365.45 -5706.81,-2966.2l0 1795.76zm-23576.21 -1620.14c-1017.47,-946.53 -1571.49,-2183.92 -1484.67,-3827.76 -0.03,-2.56 -0.1,-5.11 -0.1,-7.67l0 -631.87c-327.74,231.34 -598.78,472.32 -806.77,720.56 -301.32,359.62 -463.6,730.75 -463.6,1103.6 0,965.46 1034.51,1889.4 2755.14,2643.14zm21396.24 -4358.83l0 3441.69c1557.06,-1164.99 1428.6,-2359.92 0,-3441.69zm-1058.34 4087.47c0,-8917.15 0,-17835.26 0,-26755.75l2.05 0c-10.15,-1269.4 -244.61,-2293.82 -657.91,-3149.49 -411.01,-850.95 -1003.25,-1542.55 -1730.41,-2148.04 -776.31,-646.43 -1705.15,-1170.44 -2721.33,-1614.7 -1038.32,-453.95 -2159.44,-822.27 -3300.63,-1151.08 -739.7,-213.13 -1516.3,-356.97 -2314.93,-423.89l5025.44 1897.15 10.34 4.14c1700.64,684.35 2929.45,1744.19 3716.3,3159.99 772.79,1390.47 1106.83,3109.91 1031.82,5140.41l1.42 0 0 25464.94c336.13,-135.34 649.45,-276.85 937.84,-423.68zm-1996.18 804.36l0 -25845.62 2.07 -18.6c70.42,-1846.23 -220.48,-3388.56 -898.87,-4609.19 -665.47,-1197.41 -1716.59,-2099.32 -3179.26,-2689.62l-5249.16 -1981.61c-1093.3,-301.46 -2203.98,-580.29 -3353.49,-485.88 -802.95,65.95 -1560.75,319.08 -2259.97,712.28 971.53,-27.07 2074.18,167.04 3274.08,552.49l20.67 6.2 3656.01 1349.01c2401.26,886.02 3698.4,2039.39 4403.37,3561.91 687.08,1483.88 774.15,3267.59 774.14,5486.88l2.07 0 0 20634.78 -2.07 4.13c-23.01,1986.39 -751.69,3397.89 -2090.8,4303.42 1836.33,-193.11 3502.72,-532.03 4901.21,-980.58z"/></g>
    <text x="0" y="105848.32" fill="#000000" font-size="5px" font-weight="bold"
          font-family="'Helvetica Neue', Helvetica, Arial-Unicode, Arial, Sans-serif">Created by Oleksandr Panasovskyi</text>
    <text x="0" y="105853.32" fill="#000000" font-size="5px" font-weight="bold"
          font-family="'Helvetica Neue', Helvetica, Arial-Unicode, Arial, Sans-serif">from the Noun Project</text></svg>
