<?xml version="1.0" encoding="iso-8859-1"?>
<!-- Generator: Adobe Illustrator 19.0.0, SVG Export Plug-In . SVG Version: 6.00 Build 0)  -->
<svg version="1.1" id="Capa_1" xmlns="http://www.w3.org/2000/svg" xmlns:xlink="http://www.w3.org/1999/xlink" x="0px" y="0px"
	 viewBox="0 0 512 512" style="enable-background:new 0 0 512 512;" xml:space="preserve">
<path style="fill:#E3E6E8;" d="M381.911,478.642h-35.417c-7.721,0-13.981-6.259-13.981-13.981s6.259-13.981,13.981-13.981h35.417
	c18.193,0,32.995-14.801,32.995-32.995c0-18.193-14.801-32.995-32.995-32.995h-35.417c-7.721,0-13.981-6.259-13.981-13.981
	s6.259-13.981,13.981-13.981h35.417c33.612,0,60.956,27.344,60.956,60.956S415.523,478.642,381.911,478.642z"/>
<g>
	<path style="fill:#CCCED0;" d="M381.911,450.681h-35.417c-7.721,0-13.981,6.259-13.981,13.981c0,7.721,6.259,13.981,13.981,13.981
		h35.417c1.318,0,2.622-0.057,3.919-0.14c4.673-10.273,8.35-20.9,11.244-31.528C392.531,449.337,387.377,450.681,381.911,450.681z"
		/>
	<path style="fill:#CCCED0;" d="M346.495,356.73c-7.721,0-13.981,6.26-13.981,13.981c0,7.72,6.259,13.981,13.981,13.981h35.417
		c9.436,0,17.954,3.988,23.973,10.361c0.982-12.174,1.216-23.378,1.089-32.909c-7.651-3.466-16.132-5.413-25.062-5.413
		L346.495,356.73L346.495,356.73z"/>
</g>
<path style="fill:#E3E6E8;" d="M381.025,354.551c-0.501-13.374-11.502-23.94-24.885-23.94h-200.28
	c-13.383,0-24.384,10.568-24.885,23.94c-1.173,31.341,1.129,87.231,27.139,129.295C168.951,501.371,188.127,512,208.733,512h94.538
	c20.605,0,39.78-10.629,50.617-28.154C379.896,441.781,382.199,385.892,381.025,354.551z"/>
<path style="fill:#CCCED0;" d="M189.02,483.846c-26.01-42.065-28.311-97.954-27.139-129.295c0.501-13.373,11.502-23.94,24.885-23.94
	h-30.905c-13.382,0-24.384,10.568-24.885,23.94c-1.173,31.341,1.129,87.23,27.139,129.295C168.951,501.372,188.127,512,208.733,512
	h30.905C219.033,512,199.857,501.372,189.02,483.846z"/>
<g>
	<path style="fill:#3B484A;" d="M191.866,429.064c-4.267,0-7.726-3.459-7.726-7.726V409.73c0-4.267,3.459-7.726,7.726-7.726
		c4.267,0,7.726,3.459,7.726,7.726v11.608C199.592,425.605,196.133,429.064,191.866,429.064z"/>
	<path style="fill:#3B484A;" d="M320.137,429.064c-4.267,0-7.726-3.459-7.726-7.726V409.73c0-4.267,3.459-7.726,7.726-7.726
		c4.267,0,7.726,3.459,7.726,7.726v11.608C327.863,425.605,324.404,429.064,320.137,429.064z"/>
	<path style="fill:#3B484A;" d="M256.001,437.642c-9.809,0-19.018-4.099-25.266-11.246c-2.809-3.213-2.481-8.094,0.731-10.902
		c3.213-2.808,8.094-2.481,10.902,0.732c3.313,3.79,8.283,5.964,13.632,5.964c5.351,0,10.319-2.174,13.632-5.964
		c2.808-3.213,7.689-3.541,10.902-0.732c3.213,2.808,3.541,7.689,0.731,10.902C275.02,433.542,265.81,437.642,256.001,437.642z"/>
</g>
<path style="fill:#50A0DD;" d="M46.411,122.494c-4.225,0-8.462-1.51-11.836-4.574c-7.2-6.54-7.736-17.678-1.196-24.878
	C87.083,33.911,168.225,0,256.002,0c87.775,0,168.916,33.91,222.618,93.038c6.541,7.2,6.005,18.338-1.196,24.878
	c-7.202,6.542-18.339,6.004-24.878-1.196c-47.041-51.791-118.678-81.497-196.545-81.497s-149.506,29.705-196.548,81.5
	C55.978,120.549,51.203,122.494,46.411,122.494z"/>
<path style="fill:#55AAEA;" d="M107.251,177.751c-4.225,0-8.462-1.51-11.836-4.574c-7.2-6.54-7.736-17.678-1.196-24.878
	c38.159-42.014,97.126-66.111,161.783-66.111c64.654,0,123.621,24.096,161.78,66.108c6.541,7.2,6.005,18.338-1.196,24.878
	c-7.201,6.542-18.338,6.003-24.878-1.196c-31.497-34.678-80.959-54.567-135.706-54.567c-54.748,0-104.211,19.89-135.709,54.57
	C116.817,175.806,112.042,177.751,107.251,177.751z"/>
<path style="fill:#59B3F6;" d="M168.09,233.006c-4.225,0-8.462-1.51-11.836-4.574c-7.2-6.54-7.736-17.678-1.196-24.878
	c22.282-24.533,60.017-39.18,100.943-39.18c40.924,0,78.659,14.646,100.941,39.179c6.541,7.2,6.005,18.338-1.196,24.878
	c-7.201,6.541-18.339,6.004-24.878-1.196c-15.484-17.047-44.172-27.638-74.868-27.638c-30.697,0-59.385,10.59-74.868,27.639
	C177.657,231.061,172.882,233.006,168.09,233.006z"/>
<circle style="fill:#5FBDFF;" cx="256" cy="272.39" r="24.656"/>
<g>
</g>
<g>
</g>
<g>
</g>
<g>
</g>
<g>
</g>
<g>
</g>
<g>
</g>
<g>
</g>
<g>
</g>
<g>
</g>
<g>
</g>
<g>
</g>
<g>
</g>
<g>
</g>
<g>
</g>
</svg>
